HIERARCHY
ROOT hip
{
  OFFSET 0 0 0
  CHANNELS 6 Xposition Yposition Zposition Zrotation Yrotation Xrotation
  JOINT abdomen
  {
    OFFSET 0 20.6881 -0.73152
    CHANNELS 3 Zrotation Xrotation Yrotation
    JOINT chest
    {
      OFFSET 0 11.7043 -0.48768
      CHANNELS 3 Zrotation Xrotation Yrotation
      JOINT neck
      {
        OFFSET 0 22.1894 -2.19456
        CHANNELS 3 Zrotation Xrotation Yrotation
        JOINT head
        {
          OFFSET -0.24384 7.07133 1.2192
          CHANNELS 3 Zrotation Xrotation Yrotation
          JOINT leftEye
          {
            OFFSET 4.14528 8.04674 8.04672
            CHANNELS 3 Zrotation Xrotation Yrotation
            End Site
            {
              OFFSET 1 0 0
            }
          }
          JOINT rightEye
          {
            OFFSET -3.6576 8.04674 8.04672
            CHANNELS 3 Zrotation Xrotation Yrotation
            End Site
            {
              OFFSET 1 0 0
            }
          }
        }
      }
      JOINT rCollar
      {
        OFFSET -2.68224 19.2634 -4.8768
        CHANNELS 3 Zrotation Xrotation Yrotation
        JOINT rShldr
        {
          OFFSET -8.77824 -1.95073 1.46304
          CHANNELS 3 Zrotation Xrotation Yrotation
          JOINT rForeArm
          {
            OFFSET -28.1742 -1.7115 0.48768
            CHANNELS 3 Zrotation Xrotation Yrotation
            JOINT rHand
            {
              OFFSET -22.5879 0.773209 7.07136
              CHANNELS 3 Zrotation Xrotation Yrotation
              JOINT rThumb1
              {
                OFFSET -1.2192 -0.487915 3.41376
                CHANNELS 3 Zrotation Xrotation Yrotation
                JOINT rThumb2
                {
                  OFFSET -3.37035 -0.52449 3.41376
                  CHANNELS 3 Zrotation Xrotation Yrotation
                  End Site
                  {
                    OFFSET -1.78271 -1.18214 1.43049
                  }
                }
              }
              JOINT rIndex1
              {
                OFFSET -7.75947 0.938293 5.60832
                CHANNELS 3 Zrotation Xrotation Yrotation
                JOINT rIndex2
                {
                  OFFSET -2.54057 -0.884171 1.56538
                  CHANNELS 3 Zrotation Xrotation Yrotation
                  End Site
                  {
                    OFFSET -1.62519 -0.234802 1.16502
                  }
                }
              }
              JOINT rMid1
              {
                OFFSET -8.24714 1.18213 3.41376
                CHANNELS 3 Zrotation Xrotation Yrotation
                JOINT rMid2
                {
                  OFFSET -3.10165 -0.590103 1.0647
                  CHANNELS 3 Zrotation Xrotation Yrotation
                  End Site
                  {
                    OFFSET -2.48547 -0.328903 0.83742
                  }
                }
              }
              JOINT rRing1
              {
                OFFSET -8.82822 0.546677 1.51678
                CHANNELS 3 Zrotation Xrotation Yrotation
                JOINT rRing2
                {
                  OFFSET -2.60934 -0.819778 -0.0198488
                  CHANNELS 3 Zrotation Xrotation Yrotation
                  End Site
                  {
                    OFFSET -2.33842 -0.294052 0.168128
                  }
                }
              }
              JOINT rPinky1
              {
                OFFSET -8.27202 -0.0477905 -0.4584
                CHANNELS 3 Zrotation Xrotation Yrotation
                JOINT rPinky2
                {
                  OFFSET -1.82734 -0.647385 -0.700984
                  CHANNELS 3 Zrotation Xrotation Yrotation
                  End Site
                  {
                    OFFSET -1.69225 -0.51767 -0.607171
                  }
                }
              }
            }
          }
        }
      }
      JOINT lCollar
      {
        OFFSET 2.68224 19.2634 -4.8768
        CHANNELS 3 Zrotation Xrotation Yrotation
        JOINT lShldr
        {
          OFFSET 8.77824 -1.95073 1.46304
          CHANNELS 3 Zrotation Xrotation Yrotation
          JOINT lForeArm
          {
            OFFSET 28.1742 -1.7115 0.48768
            CHANNELS 3 Zrotation Xrotation Yrotation
            JOINT lHand
            {
              OFFSET 22.5879 0.773209 7.07136
              CHANNELS 3 Zrotation Xrotation Yrotation
              JOINT lThumb1
              {
                OFFSET 1.2192 -0.487915 3.41376
                CHANNELS 3 Zrotation Xrotation Yrotation
                JOINT lThumb2
                {
                  OFFSET 3.37035 -0.52449 3.41376
                  CHANNELS 3 Zrotation Xrotation Yrotation
                  End Site
                  {
                    OFFSET 1.78271 -1.18214 1.43049
                  }
                }
              }
              JOINT lIndex1
              {
                OFFSET 7.75947 0.938293 5.60832
                CHANNELS 3 Zrotation Xrotation Yrotation
                JOINT lIndex2
                {
                  OFFSET 2.54057 -0.884171 1.56538
                  CHANNELS 3 Zrotation Xrotation Yrotation
                  End Site
                  {
                    OFFSET 1.62519 -0.234802 1.16502
                  }
                }
              }
              JOINT lMid1
              {
                OFFSET 8.24714 1.18213 3.41376
                CHANNELS 3 Zrotation Xrotation Yrotation
                JOINT lMid2
                {
                  OFFSET 3.10165 -0.590103 1.0647
                  CHANNELS 3 Zrotation Xrotation Yrotation
                  End Site
                  {
                    OFFSET 2.48547 -0.328903 0.83742
                  }
                }
              }
              JOINT lRing1
              {
                OFFSET 8.82822 0.546677 1.51678
                CHANNELS 3 Zrotation Xrotation Yrotation
                JOINT lRing2
                {
                  OFFSET 2.60934 -0.819778 -0.0198488
                  CHANNELS 3 Zrotation Xrotation Yrotation
                  End Site
                  {
                    OFFSET 2.33842 -0.294052 0.168128
                  }
                }
              }
              JOINT lPinky1
              {
                OFFSET 8.27202 -0.0477905 -0.4584
                CHANNELS 3 Zrotation Xrotation Yrotation
                JOINT lPinky2
                {
                  OFFSET 1.82734 -0.647385 -0.700984
                  CHANNELS 3 Zrotation Xrotation Yrotation
                  End Site
                  {
                    OFFSET 1.69225 -0.51767 -0.607171
                  }
                }
              }
            }
          }
        }
      }
    }
  }
  JOINT rButtock
  {
    OFFSET -8.77824 4.35084 1.2192
    CHANNELS 3 Zrotation Xrotation Yrotation
    JOINT rThigh
    {
      OFFSET 0 -1.70687 -2.19456
      CHANNELS 3 Zrotation Xrotation Yrotation
      JOINT rShin
      {
        OFFSET 0 -36.8199 0.73152
        CHANNELS 3 Zrotation Xrotation Yrotation
        JOINT rFoot
        {
          OFFSET 0.73152 -45.1104 -5.12064
          CHANNELS 3 Zrotation Xrotation Yrotation
          End Site
          {
            OFFSET -1.1221 -3.69964 12.103
          }
        }
      }
    }
  }
  JOINT lButtock
  {
    OFFSET 8.77824 4.35084 1.2192
    CHANNELS 3 Zrotation Xrotation Yrotation
    JOINT lThigh
    {
      OFFSET 0 -1.70687 -2.19456
      CHANNELS 3 Zrotation Xrotation Yrotation
      JOINT lShin
      {
        OFFSET 0 -36.8199 0.73152
        CHANNELS 3 Zrotation Xrotation Yrotation
        JOINT lFoot
        {
          OFFSET -0.73152 -45.1104 -5.12064
          CHANNELS 3 Zrotation Xrotation Yrotation
          End Site
          {
            OFFSET 1.1221 -3.69964 12.103
          }
        }
      }
    }
  }
}
MOTION
Frames:	9
Frame Time:	0.00833333
-194.42 81.9498 18.4409 0.0 0.0 0.0 -3.13123 0.0020855 -0.0845037 -0.863235 0.0181967 -0.149332 -1.6445e-13 -1.59028e-15 -4.96954e-17 -4.93626e-13 3.18055e-15 9.31803e-17 -0.0 0.0 0.0 -0.0 0.0 0.0 -8.26013e-14 -3.85728e-16 2.48481e-16 -1.72385e-12 -8.93289e-15 -4.57205e-15 -2.97022e-11 8.63421e-12 2.54444e-13 -3.40531e-10 -1.04325e-11 -5.37514e-13 -8.0316e-10 -3.89662e-12 -5.27972e-13 -1.38704e-09 -6.72687e-12 -8.85785e-13 -8.03154e-10 -3.89538e-12 -5.31153e-13 7.73091 5.47488 0.417314 -8.0316e-10 -3.89658e-12 -5.21611e-13 2.90554 0.965183 0.102902 -8.03158e-10 -3.89648e-12 -5.24792e-13 10.2786 0.731801 0.0259123 -8.03164e-10 -3.89538e-12 -5.1525e-13 2.22167 -0.733487 -0.20892 -8.26936e-14 -3.84369e-16 -1.49089e-16 -1.72807e-12 -8.16881e-15 -6.16232e-15 -2.98017e-11 -9.16715e-12 2.83069e-13 -3.40491e-10 7.40446e-12 -5.40694e-13 -8.0327e-10 -3.82761e-12 -5.27972e-13 -1.3872e-09 -6.60601e-12 -8.83399e-13 -8.03275e-10 -3.82621e-12 -5.24792e-13 -7.73091 5.47488 -0.417314 -8.03271e-10 -3.8275e-12 -5.34333e-13 -2.90554 0.965183 -0.102902 -8.03282e-10 -3.8272e-12 -5.30357e-13 -10.2786 0.731801 -0.0259123 -8.03264e-10 -3.8266e-12 -5.43875e-13 -2.22167 -0.733487 0.20892 -2.03217e-16 0.0 -3.88251e-19 -1.91841 -1.93503 0.0146184 -0.00850337 -2.07867 -0.0697854 -0.459054 4.0001 0.132516 2.03217e-16 0.0 3.88251e-19 -2.83785 -9.3263 0.322326 -0.00902733 11.308 -0.235102 0.526949 -1.99513 -0.0183215
-193.718 79.4166 7.18287 -175.515 -5.4549 -175.445 -5.79675 9.73425 0.729363 1.33844 -1.74055 -0.379502 -5.10832 2.2592 -2.02588 16.1822 -14.5773 0.989697 -0.0 0.0 0.0 -0.0 0.0 0.0 -5.4554e-14 1.43513e-14 -1.65985e-14 23.1479 6.09136 2.52112 -9.47011 -6.32897 11.9493 0.0196716 -3.12782 -0.437268 -1.05915e-09 5.59787e-10 5.43141e-10 -1.83612e-09 9.74274e-10 9.34158e-10 -1.05914e-09 5.59788e-10 5.43138e-10 7.73091 5.47488 0.417314 -1.05915e-09 5.59786e-10 5.43148e-10 2.90554 0.965183 0.102902 -1.05914e-09 5.59787e-10 5.43144e-10 10.2786 0.731801 0.0259123 -1.05915e-09 5.59788e-10 5.43154e-10 2.22167 -0.733487 -0.20892 -5.45972e-14 1.43603e-14 -1.69577e-14 -17.7244 8.60256 -2.86222 6.93841 -3.98267 -9.78592 -0.0619681 -5.52889 0.764046 -6.18447e-10 4.00398e-10 -1.10647e-10 -1.06386e-09 6.95672e-10 -1.92168e-10 -6.18454e-10 4.00398e-10 -1.10644e-10 -7.73091 5.47488 -0.417314 -6.18451e-10 4.00397e-10 -1.10653e-10 -2.90554 0.965183 -0.102902 -6.18457e-10 4.00398e-10 -1.1065e-10 -10.2786 0.731801 -0.0259123 -6.18441e-10 4.00399e-10 -1.10661e-10 -2.22167 -0.733487 0.20892 -2.03217e-16 0.0 -3.88251e-19 -1.78756 -13.3397 -6.07951 -0.0641094 15.4454 0.129674 -1.11822 -0.877122 -3.38407 2.03217e-16 0.0 3.88251e-19 3.59841 -18.9654 6.49408 0.0382243 24.0498 -0.413322 0.212375 -4.28551 -2.08882
-193.243 78.8395 7.74501 -174.875 -5.6354 -174.608 -8.92738 19.9791 1.6496 3.64993 -3.587 -0.627234 -10.3572 4.61994 -4.17741 33.8788 -29.8747 2.25318 -0.0 0.0 0.0 -0.0 0.0 0.0 -2.70679e-14 3.14298e-14 -3.6974e-14 47.0529 12.5878 5.27542 -16.5985 -12.0378 24.9761 -0.0117503 -6.39731 -0.89879 -1.33066e-09 1.17091e-09 1.14916e-09 -2.31285e-09 2.03812e-09 1.97673e-09 -1.33065e-09 1.17091e-09 1.14916e-09 7.73091 5.47488 0.417314 -1.33066e-09 1.17091e-09 1.14917e-09 2.90554 0.965183 0.102902 -1.33065e-09 1.17091e-09 1.14916e-09 10.2786 0.731801 0.0259123 -1.33066e-09 1.17091e-09 1.14917e-09 2.22167 -0.733487 -0.20892 -2.70593e-14 3.1447e-14 -3.72939e-14 -35.5422 17.7578 -6.03346 12.7929 -7.78446 -20.2523 0.035683 -11.352 1.5932 -4.00766e-10 8.64452e-10 -2.40048e-10 -6.83225e-10 1.5018e-09 -4.16495e-10 -4.00776e-10 8.64451e-10 -2.40045e-10 -7.73091 5.47488 -0.417314 -4.00773e-10 8.64449e-10 -2.40052e-10 -2.90554 0.965183 -0.102902 -4.00775e-10 8.64452e-10 -2.4005e-10 -10.2786 0.731801 -0.0259123 -4.00761e-10 8.64453e-10 -2.40058e-10 -2.22167 -0.733487 0.20892 -2.03217e-16 0.0 -3.88251e-19 -4.47454 -24.8383 -13.4317 -0.275693 33.9134 0.397998 -2.45247 -6.00612 -7.08556 2.03217e-16 0.0 3.88251e-19 12.8856 -28.5392 13.9979 0.198267 37.4448 -0.670199 -0.299288 -6.69668 -4.29051
-192.661 78.1801 8.29101 -173.888 -5.8286 -173.95 -12.057 29.1745 2.66371 5.69922 -5.25759 -0.842862 -14.8438 6.74359 -6.11538 50.5455 -43.6691 3.97407 -0.0 0.0 0.0 -0.0 0.0 0.0 1.54061e-15 4.38255e-14 -5.02925e-14 67.7696 18.1288 7.9159 -20.825 -15.6669 37.2267 -0.0858492 -9.38125 -1.32761 -1.57111e-09 1.68715e-09 1.63048e-09 -2.73428e-09 2.93628e-09 2.80425e-09 -1.57111e-09 1.68716e-09 1.63048e-09 7.73091 5.47488 0.417314 -1.57112e-09 1.68715e-09 1.63049e-09 2.90554 0.965183 0.102902 -1.57111e-09 1.68715e-09 1.63048e-09 10.2786 0.731801 0.0259123 -1.57112e-09 1.68716e-09 1.63049e-09 2.22167 -0.733487 -0.20892 1.59565e-15 4.38496e-14 -5.05748e-14 -50.3693 25.5358 -9.41703 16.8755 -10.5551 -29.8408 0.272651 -16.5746 2.38044 -2.488e-10 1.20885e-09 -3.30886e-10 -4.1719e-10 2.10023e-09 -5.74737e-10 -2.48812e-10 1.20885e-09 -3.30883e-10 -7.73091 5.47488 -0.417314 -2.4881e-10 1.20884e-09 -3.3089e-10 -2.90554 0.965183 -0.102902 -2.48808e-10 1.20885e-09 -3.30889e-10 -10.2786 0.731801 -0.0259123 -2.48796e-10 1.20885e-09 -3.30894e-10 -2.22167 -0.733487 0.20892 -2.03217e-16 0.0 -3.88251e-19 -9.97064 -34.3784 -21.7074 -0.700683 50.4907 0.808644 -4.24395 -10.4589 -10.5934 2.03217e-16 0.0 3.88251e-19 23.9147 -36.4316 22.3106 0.50643 49.5303 -1.03424 -0.917602 -8.82225 -6.287
-192.129 77.4966 8.71928 -173.149 -6.1887 -173.68 -14.5469 35.7661 3.64944 7.12372 -6.48894 -0.975456 -17.7583 8.30622 -7.48496 63.32 -53.7514 6.1018 -0.0 0.0 0.0 -0.0 0.0 0.0 3.29551e-14 4.45142e-14 -4.5969e-14 81.7638 21.4229 9.91134 -22.8893 -17.1535 46.266 -0.169505 -11.6532 -1.66095 -1.73393e-09 1.96622e-09 1.80006e-09 -3.01743e-09 3.42019e-09 3.09409e-09 -1.73393e-09 1.96622e-09 1.80005e-09 7.73091 5.47488 0.417314 -1.73393e-09 1.96622e-09 1.80006e-09 2.90554 0.965183 0.102902 -1.73392e-09 1.96622e-09 1.80006e-09 10.2786 0.731801 0.0259123 -1.73394e-09 1.96622e-09 1.80007e-09 2.22167 -0.733487 -0.20892 3.30434e-14 4.45417e-14 -4.62174e-14 -59.7591 30.1056 -12.5209 19.2055 -12.0442 -36.7844 0.534026 -20.3073 2.98118 -2.61124e-10 1.2541e-09 -3.2532e-10 -4.37666e-10 2.17938e-09 -5.67769e-10 -2.61136e-10 1.2541e-09 -3.25317e-10 -7.73091 5.47488 -0.417314 -2.61134e-10 1.2541e-09 -3.25323e-10 -2.90554 0.965183 -0.102902 -2.6113e-10 1.2541e-09 -3.25322e-10 -10.2786 0.731801 -0.0259123 -2.6112e-10 1.2541e-09 -3.25326e-10 -2.22167 -0.733487 0.20892 -2.03217e-16 0.0 -3.88251e-19 -16.3363 -40.6043 -29.221 -1.33006 62.3432 1.39132 -5.93143 -13.3858 -13.4209 2.03217e-16 0.0 3.88251e-19 33.9371 -41.662 29.7625 0.919755 58.3445 -1.47049 -1.44855 -10.2735 -7.72029
-191.753 76.6944 9.28464 -172.853 -6.6511 -172.657 -15.7424 38.7016 4.34326 7.71058 -7.11975 -0.983568 -18.6326 9.12316 -8.01881 69.5099 -58.7283 7.9211 -0.0 0.0 0.0 -0.0 0.0 0.0 8.12775e-14 2.31478e-14 -6.47642e-15 86.933 21.731 10.7447 -23.7079 -17.7135 50.4274 -0.221605 -12.8889 -1.84495 -1.88881e-09 1.96889e-09 1.52414e-09 -3.28076e-09 3.41993e-09 2.61413e-09 -1.88881e-09 1.96889e-09 1.52414e-09 7.73091 5.47488 0.417314 -1.88881e-09 1.96889e-09 1.52415e-09 2.90554 0.965183 0.102902 -1.8888e-09 1.96889e-09 1.52415e-09 10.2786 0.731801 0.0259123 -1.88881e-09 1.96889e-09 1.52416e-09 2.22167 -0.733487 -0.20892 8.13825e-14 2.31738e-14 -6.69423e-15 -62.8117 30.2955 -14.5216 20.0759 -12.5693 -39.7391 0.667517 -21.881 3.24646 -5.92751e-10 7.9421e-10 -1.80361e-10 -1.01347e-09 1.38274e-09 -3.2338e-10 -5.92762e-10 7.94208e-10 -1.80358e-10 -7.73091 5.47488 -0.417314 -5.9276e-10 7.94207e-10 -1.80365e-10 -2.90554 0.965183 -0.102902 -5.92757e-10 7.94211e-10 -1.80364e-10 -10.2786 0.731801 -0.0259123 -5.92747e-10 7.94212e-10 -1.80369e-10 -2.22167 -0.733487 0.20892 -2.03217e-16 0.0 -3.88251e-19 -20.3916 -43.6377 -33.4049 -1.8288 67.657 1.85248 -6.93509 -14.2852 -15.2492 2.03217e-16 0.0 3.88251e-19 39.6422 -44.4366 34.0237 1.22053 62.5886 -1.77766 -1.67504 -10.8404 -8.24633
-191.237 76.0631 9.57988 -172.593 -6.8117 -172.299 -15.8703 39.0347 4.72501 7.7014 -7.32099 -0.902482 -18.0882 9.41373 -7.94851 70.3414 -60.0887 8.91927 -0.0 0.0 0.0 -0.0 0.0 0.0 1.41059e-13 -1.37023e-14 5.76382e-14 85.9238 19.9326 10.697 -23.96 -18.2517 51.0912 -0.238493 -13.3866 -1.91895 -2.03322e-09 1.77149e-09 9.30454e-10 -3.52165e-09 3.06927e-09 1.58512e-09 -2.03322e-09 1.77149e-09 9.30451e-10 7.73091 5.47488 0.417314 -2.03322e-09 1.77149e-09 9.30455e-10 2.90554 0.965183 0.102902 -2.03321e-09 1.77149e-09 9.30455e-10 10.2786 0.731801 0.0259123 -2.03322e-09 1.77149e-09 9.30462e-10 2.22167 -0.733487 -0.20892 1.41169e-13 -1.36814e-14 5.74488e-14 -61.7216 27.4511 -15.538 20.1265 -12.6802 -39.8094 0.666965 -21.9193 3.25222 -1.1482e-09 -2.2385e-11 6.39518e-11 -1.97859e-09 -3.23854e-11 9.0302e-11 -1.14821e-09 -2.23863e-11 6.39568e-11 -7.73091 5.47488 -0.417314 -1.14821e-09 -2.23858e-11 6.3947e-11 -2.90554 0.965183 -0.102902 -1.1482e-09 -2.23829e-11 6.39493e-11 -10.2786 0.731801 -0.0259123 -1.1482e-09 -2.23814e-11 6.39413e-11 -2.22167 -0.733487 0.20892 -2.03217e-16 0.0 -3.88251e-19 -21.7213 -44.9068 -34.4134 -1.91591 68.2994 1.92132 -7.28107 -13.785 -16.3053 2.03217e-16 0.0 3.88251e-19 41.3931 -45.92 35.3873 1.29839 63.5695 -1.857 -1.64768 -10.7818 -8.11964
-190.768 75.4288 9.91985 -172.3 -7.337 -171.878 -15.5703 38.3727 4.98577 7.41657 -7.32778 -0.79583 -16.9637 9.46657 -7.66066 68.792 -59.9518 9.30525 -0.0 0.0 0.0 -0.0 0.0 0.0 1.84657e-13 -4.76816e-14 1.1485e-13 82.445 17.2013 10.3308 -24.0246 -18.8592 50.3084 -0.240402 -13.655 -1.95777 -2.01223e-09 1.405e-09 2.24136e-10 -3.47556e-09 2.42523e-09 3.63817e-10 -2.01223e-09 1.405e-09 2.24134e-10 7.73091 5.47488 0.417314 -2.01223e-09 1.405e-09 2.24134e-10 2.90554 0.965183 0.102902 -2.01222e-09 1.405e-09 2.24137e-10 10.2786 0.731801 0.0259123 -2.01224e-09 1.405e-09 2.24143e-10 2.22167 -0.733487 -0.20892 1.84763e-13 -4.76669e-14 1.14684e-13 -58.8949 23.5626 -16.2596 19.9291 -12.7321 -38.8496 0.617035 -21.4736 3.17366 -1.6503e-09 -8.43518e-10 3.40928e-10 -2.8527e-09 -1.4568e-09 5.61901e-10 -1.6503e-09 -8.43518e-10 3.40934e-10 -7.73091 5.47488 -0.417314 -1.6503e-09 -8.43516e-10 3.40922e-10 -2.90554 0.965183 -0.102902 -1.6503e-09 -8.43515e-10 3.40925e-10 -10.2786 0.731801 -0.0259123 -1.65029e-09 -8.43513e-10 3.40914e-10 -2.22167 -0.733487 0.20892 -2.03217e-16 0.0 -3.88251e-19 -21.7932 -45.4144 -33.8795 -1.77703 66.9574 1.77326 -7.26176 -12.7684 -16.8668 2.03217e-16 0.0 3.88251e-19 41.4237 -46.8805 35.5762 1.26121 63.2337 -1.81784 -1.55619 -10.4199 -7.87116
-190.28 74.7742 10.2476 -172.095 -7.6572 -171.428 -15.5548 38.3173 5.36723 7.17656 -7.37527 -0.727321 -16.0873 9.5689 -7.54457 68.2924 -60.4098 9.70865 -0.0 0.0 0.0 -0.0 0.0 0.0 1.84428e-13 -6.04352e-14 1.33633e-13 80.2548 14.7161 10.1683 -24.165 -19.4085 50.1354 -0.253948 -14.2021 -2.03831 -1.67092e-09 9.00417e-10 -3.89659e-10 -2.87793e-09 1.54482e-09 -6.93048e-10 -1.67092e-09 9.00415e-10 -3.89662e-10 7.73091 5.47488 0.417314 -1.67092e-09 9.00415e-10 -3.89662e-10 2.90554 0.965183 0.102902 -1.67091e-09 9.00415e-10 -3.89658e-10 10.2786 0.731801 0.0259123 -1.67093e-09 9.00416e-10 -3.89653e-10 2.22167 -0.733487 -0.20892 1.84528e-13 -6.04255e-14 1.33484e-13 -56.6818 20.5789 -17.315 20.0175 -13.0337 -38.7223 0.608362 -21.5953 3.18906 -1.82187e-09 -1.31702e-09 5.83874e-10 -3.15546e-09 -2.2813e-09 9.8004e-10 -1.82187e-09 -1.31702e-09 5.8388e-10 -7.73091 5.47488 -0.417314 -1.82187e-09 -1.31702e-09 5.83867e-10 -2.90554 0.965183 -0.102902 -1.82187e-09 -1.31702e-09 5.83871e-10 -10.2786 0.731801 -0.0259123 -1.82186e-09 -1.31702e-09 5.83858e-10 -2.22167 -0.733487 0.20892 -2.03217e-16 0.0 -3.88251e-19 -22.5112 -45.9662 -33.789 -1.72184 66.3171 1.70509 -7.24229 -12.0923 -17.223 2.03217e-16 0.0 3.88251e-19 42.411 -47.8683 36.6604 1.28225 63.5271 -1.83296 -1.58803 -10.0775 -8.03169
